{
	"asset":{
		"generator":"Khronos glTF Blender I/O v4.3.47",
		"version":"2.0"
	},
	"extensionsUsed":[
		"KHR_materials_clearcoat",
		"KHR_materials_specular",
		"KHR_materials_ior",
		"KHR_materials_sheen"
	],
	"scene":0,
	"scenes":[
		{
			"name":"Scene",
			"nodes":[
				0,
				1,
				2,
				3,
				4,
				5
			]
		}
	],
	"nodes":[
		{
			"mesh":0,
			"name":"legmiddle.001",
			"translation":[
				0,
				0.6499999761581421,
				0
			]
		},
		{
			"mesh":1,
			"name":"leg3.002",
			"rotation":[
				0,
				0.9411759972572327,
				0,
				0.3379168212413788
			],
			"translation":[
				0.26043087244033813,
				0.27000001072883606,
				0.2204892933368683
			]
		},
		{
			"mesh":2,
			"name":"leg2.001",
			"rotation":[
				0,
				-0.9320078492164612,
				0,
				0.3624380826950073
			],
			"translation":[
				0.2503274381160736,
				0.27000001072883606,
				-0.23346161842346191
			]
		},
		{
			"mesh":3,
			"name":"leg.001",
			"translation":[
				-0.3423524498939514,
				0.27000001072883606,
				0
			]
		},
		{
			"mesh":4,
			"name":"sidyshka.001",
			"scale":[
				1.100000023841858,
				0.19999998807907104,
				1.100000023841858
			],
			"translation":[
				0,
				1.0198625326156616,
				0
			]
		},
		{
			"mesh":5,
			"name":"sidenie.002",
			"translation":[
				0,
				1,
				0
			]
		}
	],
	"materials":[
		{
			"doubleSided":true,
			"extensions":{
				"KHR_materials_clearcoat":{
					"clearcoatFactor":0.16124999523162842,
					"clearcoatRoughnessFactor":1,
					"clearcoatRoughnessTexture":{
						"index":0
					}
				}
			},
			"name":"\u041c\u0430\u0442\u0435\u0440\u0438\u0430\u043b.010",
			"normalTexture":{
				"index":1
			},
			"pbrMetallicRoughness":{
				"metallicFactor":0,
				"roughnessFactor":0.5
			}
		},
		{
			"doubleSided":true,
			"extensions":{
				"KHR_materials_clearcoat":{
					"clearcoatFactor":0.16124999523162842,
					"clearcoatRoughnessFactor":1,
					"clearcoatRoughnessTexture":{
						"index":2
					}
				}
			},
			"name":"\u041c\u0430\u0442\u0435\u0440\u0438\u0430\u043b.009",
			"normalTexture":{
				"index":3
			},
			"pbrMetallicRoughness":{
				"metallicFactor":0,
				"roughnessFactor":0.5
			}
		},
		{
			"doubleSided":true,
			"extensions":{
				"KHR_materials_clearcoat":{
					"clearcoatFactor":0.16124999523162842,
					"clearcoatRoughnessFactor":1,
					"clearcoatRoughnessTexture":{
						"index":4
					}
				}
			},
			"name":"\u041c\u0430\u0442\u0435\u0440\u0438\u0430\u043b.008",
			"normalTexture":{
				"index":5
			},
			"pbrMetallicRoughness":{
				"metallicFactor":0,
				"roughnessFactor":0.5
			}
		},
		{
			"doubleSided":true,
			"extensions":{
				"KHR_materials_clearcoat":{
					"clearcoatFactor":0.16124999523162842,
					"clearcoatRoughnessFactor":1,
					"clearcoatRoughnessTexture":{
						"index":6
					}
				}
			},
			"name":"\u041c\u0430\u0442\u0435\u0440\u0438\u0430\u043b.007",
			"normalTexture":{
				"index":7
			},
			"pbrMetallicRoughness":{
				"metallicFactor":0,
				"roughnessFactor":0.5
			}
		},
		{
			"doubleSided":true,
			"extensions":{
				"KHR_materials_specular":{
					"specularFactor":0
				},
				"KHR_materials_sheen":{
					"sheenColorFactor":[
						1.0,
						1.0,
						1.0
					],
					"sheenRoughnessFactor":0.5
				},
				"KHR_materials_ior":{
					"ior":1.4500000476837158
				}
			},
			"name":"\u041c\u0430\u0442\u0435\u0440\u0438\u0430\u043b.012",
			"normalTexture":{
				"index":8,
				"scale":0.9999998807907104
			},
			"pbrMetallicRoughness":{
				"metallicFactor":0,
				"roughnessFactor":0.5
			}
		},
		{
			"doubleSided":true,
			"extensions":{
				"KHR_materials_clearcoat":{
					"clearcoatFactor":0.16124999523162842,
					"clearcoatRoughnessFactor":1,
					"clearcoatRoughnessTexture":{
						"index":9
					}
				}
			},
			"name":"\u041c\u0430\u0442\u0435\u0440\u0438\u0430\u043b.011",
			"normalTexture":{
				"index":10
			},
			"pbrMetallicRoughness":{
				"metallicFactor":0,
				"roughnessFactor":0.5
			}
		}
	],
	"meshes":[
		{
			"name":"\u0426\u0438\u043b\u0438\u043d\u0434\u0440.013",
			"primitives":[
				{
					"attributes":{
						"POSITION":0,
						"NORMAL":1,
						"TEXCOORD_0":2
					},
					"indices":3,
					"material":0
				}
			]
		},
		{
			"name":"\u0426\u0438\u043b\u0438\u043d\u0434\u0440.010",
			"primitives":[
				{
					"attributes":{
						"POSITION":4,
						"NORMAL":5,
						"TEXCOORD_0":6
					},
					"indices":7,
					"material":1
				}
			]
		},
		{
			"name":"\u0426\u0438\u043b\u0438\u043d\u0434\u0440.011",
			"primitives":[
				{
					"attributes":{
						"POSITION":8,
						"NORMAL":9,
						"TEXCOORD_0":10
					},
					"indices":7,
					"material":2
				}
			]
		},
		{
			"name":"\u0426\u0438\u043b\u0438\u043d\u0434\u0440.012",
			"primitives":[
				{
					"attributes":{
						"POSITION":11,
						"NORMAL":12,
						"TEXCOORD_0":13
					},
					"indices":14,
					"material":3
				}
			]
		},
		{
			"name":"\u0421\u0444\u0435\u0440\u0430.002",
			"primitives":[
				{
					"attributes":{
						"POSITION":15,
						"NORMAL":16,
						"TEXCOORD_0":17
					},
					"indices":18,
					"material":4
				}
			]
		},
		{
			"name":"\u0426\u0438\u043b\u0438\u043d\u0434\u0440.014",
			"primitives":[
				{
					"attributes":{
						"POSITION":19,
						"NORMAL":20,
						"TEXCOORD_0":21
					},
					"indices":22,
					"material":5
				}
			]
		}
	],
	"textures":[
		{
			"sampler":0,
			"source":0
		},
		{
			"sampler":0,
			"source":1
		},
		{
			"sampler":0,
			"source":0
		},
		{
			"sampler":0,
			"source":1
		},
		{
			"sampler":0,
			"source":0
		},
		{
			"sampler":0,
			"source":1
		},
		{
			"sampler":0,
			"source":0
		},
		{
			"sampler":0,
			"source":1
		},
		{
			"sampler":0,
			"source":2
		},
		{
			"sampler":0,
			"source":0
		},
		{
			"sampler":0,
			"source":1
		}
	],
	"images":[
		{
			"mimeType":"image/png",
			"name":"specularchairtexture.png",
			"uri":"specularchairtexture_png.png"
		},
		{
			"mimeType":"image/png",
			"name":"normalchairtexture.png",
			"uri":"normalchairtexture_png.png"
		},
		{
			"mimeType":"image/png",
			"name":"normalsidyshkatexture.png",
			"uri":"normalsidyshkatexture_png.png"
		}
	],
	"accessors":[
		{
			"bufferView":0,
			"componentType":5126,
			"count":144,
			"max":[
				0.06000000238418579,
				0.3499999940395355,
				0.06000000238418579
			],
			"min":[
				-0.06000000238418579,
				-0.3499999940395355,
				-0.06000000238418579
			],
			"type":"VEC3"
		},
		{
			"bufferView":1,
			"componentType":5126,
			"count":144,
			"type":"VEC3"
		},
		{
			"bufferView":2,
			"componentType":5126,
			"count":144,
			"type":"VEC2"
		},
		{
			"bufferView":3,
			"componentType":5123,
			"count":234,
			"type":"SCALAR"
		},
		{
			"bufferView":4,
			"componentType":5126,
			"count":80,
			"max":[
				0.2869871258735657,
				0.24852509796619415,
				0.06000000238418579
			],
			"min":[
				0.026000000536441803,
				-0.25,
				-0.06000000238418579
			],
			"type":"VEC3"
		},
		{
			"bufferView":5,
			"componentType":5126,
			"count":80,
			"type":"VEC3"
		},
		{
			"bufferView":6,
			"componentType":5126,
			"count":80,
			"type":"VEC2"
		},
		{
			"bufferView":7,
			"componentType":5123,
			"count":138,
			"type":"SCALAR"
		},
		{
			"bufferView":8,
			"componentType":5126,
			"count":80,
			"max":[
				0.2869871258735657,
				0.24852509796619415,
				0.06000000238418579
			],
			"min":[
				0.026000000536441803,
				-0.25,
				-0.06000000238418579
			],
			"type":"VEC3"
		},
		{
			"bufferView":9,
			"componentType":5126,
			"count":80,
			"type":"VEC3"
		},
		{
			"bufferView":10,
			"componentType":5126,
			"count":80,
			"type":"VEC2"
		},
		{
			"bufferView":11,
			"componentType":5126,
			"count":80,
			"max":[
				0.28641822934150696,
				0.24852509796619415,
				0.06000000238418579
			],
			"min":[
				0.026000000536441803,
				-0.25,
				-0.06000000238418579
			],
			"type":"VEC3"
		},
		{
			"bufferView":12,
			"componentType":5126,
			"count":80,
			"type":"VEC3"
		},
		{
			"bufferView":13,
			"componentType":5126,
			"count":80,
			"type":"VEC2"
		},
		{
			"bufferView":14,
			"componentType":5123,
			"count":138,
			"type":"SCALAR"
		},
		{
			"bufferView":15,
			"componentType":5126,
			"count":496,
			"max":[
				0.4499998986721039,
				0.4499998688697815,
				0.44999998807907104
			],
			"min":[
				-1.2191711107334413e-07,
				3.39740466870353e-08,
				-0.44999951124191284
			],
			"type":"VEC3"
		},
		{
			"bufferView":16,
			"componentType":5126,
			"count":496,
			"type":"VEC3"
		},
		{
			"bufferView":17,
			"componentType":5126,
			"count":496,
			"type":"VEC2"
		},
		{
			"bufferView":18,
			"componentType":5123,
			"count":720,
			"type":"SCALAR"
		},
		{
			"bufferView":19,
			"componentType":5126,
			"count":98,
			"max":[
				0.5,
				0.030000001192092896,
				0.5
			],
			"min":[
				-1.6292068494294654e-07,
				-0.030000001192092896,
				-0.5
			],
			"type":"VEC3"
		},
		{
			"bufferView":20,
			"componentType":5126,
			"count":98,
			"type":"VEC3"
		},
		{
			"bufferView":21,
			"componentType":5126,
			"count":98,
			"type":"VEC2"
		},
		{
			"bufferView":22,
			"componentType":5123,
			"count":186,
			"type":"SCALAR"
		}
	],
	"bufferViews":[
		{
			"buffer":0,
			"byteLength":1728,
			"byteOffset":0,
			"target":34962
		},
		{
			"buffer":0,
			"byteLength":1728,
			"byteOffset":1728,
			"target":34962
		},
		{
			"buffer":0,
			"byteLength":1152,
			"byteOffset":3456,
			"target":34962
		},
		{
			"buffer":0,
			"byteLength":468,
			"byteOffset":4608,
			"target":34963
		},
		{
			"buffer":0,
			"byteLength":960,
			"byteOffset":5076,
			"target":34962
		},
		{
			"buffer":0,
			"byteLength":960,
			"byteOffset":6036,
			"target":34962
		},
		{
			"buffer":0,
			"byteLength":640,
			"byteOffset":6996,
			"target":34962
		},
		{
			"buffer":0,
			"byteLength":276,
			"byteOffset":7636,
			"target":34963
		},
		{
			"buffer":0,
			"byteLength":960,
			"byteOffset":7912,
			"target":34962
		},
		{
			"buffer":0,
			"byteLength":960,
			"byteOffset":8872,
			"target":34962
		},
		{
			"buffer":0,
			"byteLength":640,
			"byteOffset":9832,
			"target":34962
		},
		{
			"buffer":0,
			"byteLength":960,
			"byteOffset":10472,
			"target":34962
		},
		{
			"buffer":0,
			"byteLength":960,
			"byteOffset":11432,
			"target":34962
		},
		{
			"buffer":0,
			"byteLength":640,
			"byteOffset":12392,
			"target":34962
		},
		{
			"buffer":0,
			"byteLength":276,
			"byteOffset":13032,
			"target":34963
		},
		{
			"buffer":0,
			"byteLength":5952,
			"byteOffset":13308,
			"target":34962
		},
		{
			"buffer":0,
			"byteLength":5952,
			"byteOffset":19260,
			"target":34962
		},
		{
			"buffer":0,
			"byteLength":3968,
			"byteOffset":25212,
			"target":34962
		},
		{
			"buffer":0,
			"byteLength":1440,
			"byteOffset":29180,
			"target":34963
		},
		{
			"buffer":0,
			"byteLength":1176,
			"byteOffset":30620,
			"target":34962
		},
		{
			"buffer":0,
			"byteLength":1176,
			"byteOffset":31796,
			"target":34962
		},
		{
			"buffer":0,
			"byteLength":784,
			"byteOffset":32972,
			"target":34962
		},
		{
			"buffer":0,
			"byteLength":372,
			"byteOffset":33756,
			"target":34963
		}
	],
	"samplers":[
		{
			"magFilter":9729,
			"minFilter":9987
		}
	],
	"buffers":[
		{
			"byteLength":34128,
			"uri":"Chair2.bin"
		}
	]
}
